<?xml version="1.0" encoding="utf-8" standalone="no"?>
<!DOCTYPE svg PUBLIC "-//W3C//DTD SVG 1.1//EN"
  "http://www.w3.org/Graphics/SVG/1.1/DTD/svg11.dtd">
<!-- Created with matplotlib (http://matplotlib.org/) -->
<svg height="345pt" version="1.1" viewBox="0 0 460 345" width="460pt" xmlns="http://www.w3.org/2000/svg" xmlns:xlink="http://www.w3.org/1999/xlink">
 <defs>
  <style type="text/css">
*{stroke-linecap:butt;stroke-linejoin:round;}
  </style>
 </defs>
 <g id="figure_1">
  <g id="patch_1">
   <path d="M 0 345.6 
L 460.8 345.6 
L 460.8 0 
L 0 0 
z
" style="fill:#ffffff;"/>
  </g>
  <g id="axes_1">
   <g id="patch_2">
    <path d="M 57.6 307.584 
L 414.72 307.584 
L 414.72 41.472 
L 57.6 41.472 
z
" style="fill:#ffffff;"/>
   </g>
   <g id="matplotlib.axis_1">
    <g id="xtick_1">
     <g id="line2d_1">
      <defs>
       <path d="M 0 0 
L 0 3.5 
" id="mb8a1e8fde0" style="stroke:#000000;stroke-width:0.8;"/>
      </defs>
      <g>
       <use style="stroke:#000000;stroke-width:0.8;" x="88.625755" xlink:href="#mb8a1e8fde0" y="307.584"/>
      </g>
     </g>
     <g id="text_1">
      <!-- −0.010 -->
      <defs>
       <path d="M 10.59375 35.5 
L 73.1875 35.5 
L 73.1875 27.203125 
L 10.59375 27.203125 
z
" id="DejaVuSans-2212"/>
       <path d="M 31.78125 66.40625 
Q 24.171875 66.40625 20.328125 58.90625 
Q 16.5 51.421875 16.5 36.375 
Q 16.5 21.390625 20.328125 13.890625 
Q 24.171875 6.390625 31.78125 6.390625 
Q 39.453125 6.390625 43.28125 13.890625 
Q 47.125 21.390625 47.125 36.375 
Q 47.125 51.421875 43.28125 58.90625 
Q 39.453125 66.40625 31.78125 66.40625 
M 31.78125 74.21875 
Q 44.046875 74.21875 50.515625 64.515625 
Q 56.984375 54.828125 56.984375 36.375 
Q 56.984375 17.96875 50.515625 8.265625 
Q 44.046875 -1.421875 31.78125 -1.421875 
Q 19.53125 -1.421875 13.0625 8.265625 
Q 6.59375 17.96875 6.59375 36.375 
Q 6.59375 54.828125 13.0625 64.515625 
Q 19.53125 74.21875 31.78125 74.21875 
" id="DejaVuSans-30"/>
       <path d="M 10.6875 12.40625 
L 21 12.40625 
L 21 0 
L 10.6875 0 
z
" id="DejaVuSans-2e"/>
       <path d="M 12.40625 8.296875 
L 28.515625 8.296875 
L 28.515625 63.921875 
L 10.984375 60.40625 
L 10.984375 69.390625 
L 28.421875 72.90625 
L 38.28125 72.90625 
L 38.28125 8.296875 
L 54.390625 8.296875 
L 54.390625 0 
L 12.40625 0 
z
" id="DejaVuSans-31"/>
      </defs>
      <g transform="translate(70.121849 322.182437)scale(0.1 -0.1)">
       <use xlink:href="#DejaVuSans-2212"/>
       <use x="83.789062" xlink:href="#DejaVuSans-30"/>
       <use x="147.412109" xlink:href="#DejaVuSans-2e"/>
       <use x="179.199219" xlink:href="#DejaVuSans-30"/>
       <use x="242.822266" xlink:href="#DejaVuSans-31"/>
       <use x="306.445312" xlink:href="#DejaVuSans-30"/>
      </g>
     </g>
    </g>
    <g id="xtick_2">
     <g id="line2d_2">
      <g>
       <use style="stroke:#000000;stroke-width:0.8;" x="146.496441" xlink:href="#mb8a1e8fde0" y="307.584"/>
      </g>
     </g>
     <g id="text_2">
      <!-- −0.005 -->
      <defs>
       <path d="M 10.796875 72.90625 
L 49.515625 72.90625 
L 49.515625 64.59375 
L 19.828125 64.59375 
L 19.828125 46.734375 
Q 21.96875 47.46875 24.109375 47.828125 
Q 26.265625 48.1875 28.421875 48.1875 
Q 40.625 48.1875 47.75 41.5 
Q 54.890625 34.8125 54.890625 23.390625 
Q 54.890625 11.625 47.5625 5.09375 
Q 40.234375 -1.421875 26.90625 -1.421875 
Q 22.3125 -1.421875 17.546875 -0.640625 
Q 12.796875 0.140625 7.71875 1.703125 
L 7.71875 11.625 
Q 12.109375 9.234375 16.796875 8.0625 
Q 21.484375 6.890625 26.703125 6.890625 
Q 35.15625 6.890625 40.078125 11.328125 
Q 45.015625 15.765625 45.015625 23.390625 
Q 45.015625 31 40.078125 35.4375 
Q 35.15625 39.890625 26.703125 39.890625 
Q 22.75 39.890625 18.8125 39.015625 
Q 14.890625 38.140625 10.796875 36.28125 
z
" id="DejaVuSans-35"/>
      </defs>
      <g transform="translate(127.992534 322.182437)scale(0.1 -0.1)">
       <use xlink:href="#DejaVuSans-2212"/>
       <use x="83.789062" xlink:href="#DejaVuSans-30"/>
       <use x="147.412109" xlink:href="#DejaVuSans-2e"/>
       <use x="179.199219" xlink:href="#DejaVuSans-30"/>
       <use x="242.822266" xlink:href="#DejaVuSans-30"/>
       <use x="306.445312" xlink:href="#DejaVuSans-35"/>
      </g>
     </g>
    </g>
    <g id="xtick_3">
     <g id="line2d_3">
      <g>
       <use style="stroke:#000000;stroke-width:0.8;" x="204.367126" xlink:href="#mb8a1e8fde0" y="307.584"/>
      </g>
     </g>
     <g id="text_3">
      <!-- 0.000 -->
      <g transform="translate(190.053064 322.182437)scale(0.1 -0.1)">
       <use xlink:href="#DejaVuSans-30"/>
       <use x="63.623047" xlink:href="#DejaVuSans-2e"/>
       <use x="95.410156" xlink:href="#DejaVuSans-30"/>
       <use x="159.033203" xlink:href="#DejaVuSans-30"/>
       <use x="222.65625" xlink:href="#DejaVuSans-30"/>
      </g>
     </g>
    </g>
    <g id="xtick_4">
     <g id="line2d_4">
      <g>
       <use style="stroke:#000000;stroke-width:0.8;" x="262.237812" xlink:href="#mb8a1e8fde0" y="307.584"/>
      </g>
     </g>
     <g id="text_4">
      <!-- 0.005 -->
      <g transform="translate(247.923749 322.182437)scale(0.1 -0.1)">
       <use xlink:href="#DejaVuSans-30"/>
       <use x="63.623047" xlink:href="#DejaVuSans-2e"/>
       <use x="95.410156" xlink:href="#DejaVuSans-30"/>
       <use x="159.033203" xlink:href="#DejaVuSans-30"/>
       <use x="222.65625" xlink:href="#DejaVuSans-35"/>
      </g>
     </g>
    </g>
    <g id="xtick_5">
     <g id="line2d_5">
      <g>
       <use style="stroke:#000000;stroke-width:0.8;" x="320.108497" xlink:href="#mb8a1e8fde0" y="307.584"/>
      </g>
     </g>
     <g id="text_5">
      <!-- 0.010 -->
      <g transform="translate(305.794434 322.182437)scale(0.1 -0.1)">
       <use xlink:href="#DejaVuSans-30"/>
       <use x="63.623047" xlink:href="#DejaVuSans-2e"/>
       <use x="95.410156" xlink:href="#DejaVuSans-30"/>
       <use x="159.033203" xlink:href="#DejaVuSans-31"/>
       <use x="222.65625" xlink:href="#DejaVuSans-30"/>
      </g>
     </g>
    </g>
    <g id="xtick_6">
     <g id="line2d_6">
      <g>
       <use style="stroke:#000000;stroke-width:0.8;" x="377.979182" xlink:href="#mb8a1e8fde0" y="307.584"/>
      </g>
     </g>
     <g id="text_6">
      <!-- 0.015 -->
      <g transform="translate(363.66512 322.182437)scale(0.1 -0.1)">
       <use xlink:href="#DejaVuSans-30"/>
       <use x="63.623047" xlink:href="#DejaVuSans-2e"/>
       <use x="95.410156" xlink:href="#DejaVuSans-30"/>
       <use x="159.033203" xlink:href="#DejaVuSans-31"/>
       <use x="222.65625" xlink:href="#DejaVuSans-35"/>
      </g>
     </g>
    </g>
   </g>
   <g id="matplotlib.axis_2">
    <g id="ytick_1">
     <g id="line2d_7">
      <defs>
       <path d="M 0 0 
L -3.5 0 
" id="m418c81fb87" style="stroke:#000000;stroke-width:0.8;"/>
      </defs>
      <g>
       <use style="stroke:#000000;stroke-width:0.8;" x="57.6" xlink:href="#m418c81fb87" y="289.144512"/>
      </g>
     </g>
     <g id="text_7">
      <!-- 0.000 -->
      <g transform="translate(21.971875 292.94373)scale(0.1 -0.1)">
       <use xlink:href="#DejaVuSans-30"/>
       <use x="63.623047" xlink:href="#DejaVuSans-2e"/>
       <use x="95.410156" xlink:href="#DejaVuSans-30"/>
       <use x="159.033203" xlink:href="#DejaVuSans-30"/>
       <use x="222.65625" xlink:href="#DejaVuSans-30"/>
      </g>
     </g>
    </g>
    <g id="ytick_2">
     <g id="line2d_8">
      <g>
       <use style="stroke:#000000;stroke-width:0.8;" x="57.6" xlink:href="#m418c81fb87" y="257.800088"/>
      </g>
     </g>
     <g id="text_8">
      <!-- 0.001 -->
      <g transform="translate(21.971875 261.599306)scale(0.1 -0.1)">
       <use xlink:href="#DejaVuSans-30"/>
       <use x="63.623047" xlink:href="#DejaVuSans-2e"/>
       <use x="95.410156" xlink:href="#DejaVuSans-30"/>
       <use x="159.033203" xlink:href="#DejaVuSans-30"/>
       <use x="222.65625" xlink:href="#DejaVuSans-31"/>
      </g>
     </g>
    </g>
    <g id="ytick_3">
     <g id="line2d_9">
      <g>
       <use style="stroke:#000000;stroke-width:0.8;" x="57.6" xlink:href="#m418c81fb87" y="226.455663"/>
      </g>
     </g>
     <g id="text_9">
      <!-- 0.002 -->
      <defs>
       <path d="M 19.1875 8.296875 
L 53.609375 8.296875 
L 53.609375 0 
L 7.328125 0 
L 7.328125 8.296875 
Q 12.9375 14.109375 22.625 23.890625 
Q 32.328125 33.6875 34.8125 36.53125 
Q 39.546875 41.84375 41.421875 45.53125 
Q 43.3125 49.21875 43.3125 52.78125 
Q 43.3125 58.59375 39.234375 62.25 
Q 35.15625 65.921875 28.609375 65.921875 
Q 23.96875 65.921875 18.8125 64.3125 
Q 13.671875 62.703125 7.8125 59.421875 
L 7.8125 69.390625 
Q 13.765625 71.78125 18.9375 73 
Q 24.125 74.21875 28.421875 74.21875 
Q 39.75 74.21875 46.484375 68.546875 
Q 53.21875 62.890625 53.21875 53.421875 
Q 53.21875 48.921875 51.53125 44.890625 
Q 49.859375 40.875 45.40625 35.40625 
Q 44.1875 33.984375 37.640625 27.21875 
Q 31.109375 20.453125 19.1875 8.296875 
" id="DejaVuSans-32"/>
      </defs>
      <g transform="translate(21.971875 230.254882)scale(0.1 -0.1)">
       <use xlink:href="#DejaVuSans-30"/>
       <use x="63.623047" xlink:href="#DejaVuSans-2e"/>
       <use x="95.410156" xlink:href="#DejaVuSans-30"/>
       <use x="159.033203" xlink:href="#DejaVuSans-30"/>
       <use x="222.65625" xlink:href="#DejaVuSans-32"/>
      </g>
     </g>
    </g>
    <g id="ytick_4">
     <g id="line2d_10">
      <g>
       <use style="stroke:#000000;stroke-width:0.8;" x="57.6" xlink:href="#m418c81fb87" y="195.111239"/>
      </g>
     </g>
     <g id="text_10">
      <!-- 0.003 -->
      <defs>
       <path d="M 40.578125 39.3125 
Q 47.65625 37.796875 51.625 33 
Q 55.609375 28.21875 55.609375 21.1875 
Q 55.609375 10.40625 48.1875 4.484375 
Q 40.765625 -1.421875 27.09375 -1.421875 
Q 22.515625 -1.421875 17.65625 -0.515625 
Q 12.796875 0.390625 7.625 2.203125 
L 7.625 11.71875 
Q 11.71875 9.328125 16.59375 8.109375 
Q 21.484375 6.890625 26.8125 6.890625 
Q 36.078125 6.890625 40.9375 10.546875 
Q 45.796875 14.203125 45.796875 21.1875 
Q 45.796875 27.640625 41.28125 31.265625 
Q 36.765625 34.90625 28.71875 34.90625 
L 20.21875 34.90625 
L 20.21875 43.015625 
L 29.109375 43.015625 
Q 36.375 43.015625 40.234375 45.921875 
Q 44.09375 48.828125 44.09375 54.296875 
Q 44.09375 59.90625 40.109375 62.90625 
Q 36.140625 65.921875 28.71875 65.921875 
Q 24.65625 65.921875 20.015625 65.03125 
Q 15.375 64.15625 9.8125 62.3125 
L 9.8125 71.09375 
Q 15.4375 72.65625 20.34375 73.4375 
Q 25.25 74.21875 29.59375 74.21875 
Q 40.828125 74.21875 47.359375 69.109375 
Q 53.90625 64.015625 53.90625 55.328125 
Q 53.90625 49.265625 50.4375 45.09375 
Q 46.96875 40.921875 40.578125 39.3125 
" id="DejaVuSans-33"/>
      </defs>
      <g transform="translate(21.971875 198.910458)scale(0.1 -0.1)">
       <use xlink:href="#DejaVuSans-30"/>
       <use x="63.623047" xlink:href="#DejaVuSans-2e"/>
       <use x="95.410156" xlink:href="#DejaVuSans-30"/>
       <use x="159.033203" xlink:href="#DejaVuSans-30"/>
       <use x="222.65625" xlink:href="#DejaVuSans-33"/>
      </g>
     </g>
    </g>
    <g id="ytick_5">
     <g id="line2d_11">
      <g>
       <use style="stroke:#000000;stroke-width:0.8;" x="57.6" xlink:href="#m418c81fb87" y="163.766815"/>
      </g>
     </g>
     <g id="text_11">
      <!-- 0.004 -->
      <defs>
       <path d="M 37.796875 64.3125 
L 12.890625 25.390625 
L 37.796875 25.390625 
z
M 35.203125 72.90625 
L 47.609375 72.90625 
L 47.609375 25.390625 
L 58.015625 25.390625 
L 58.015625 17.1875 
L 47.609375 17.1875 
L 47.609375 0 
L 37.796875 0 
L 37.796875 17.1875 
L 4.890625 17.1875 
L 4.890625 26.703125 
z
" id="DejaVuSans-34"/>
      </defs>
      <g transform="translate(21.971875 167.566034)scale(0.1 -0.1)">
       <use xlink:href="#DejaVuSans-30"/>
       <use x="63.623047" xlink:href="#DejaVuSans-2e"/>
       <use x="95.410156" xlink:href="#DejaVuSans-30"/>
       <use x="159.033203" xlink:href="#DejaVuSans-30"/>
       <use x="222.65625" xlink:href="#DejaVuSans-34"/>
      </g>
     </g>
    </g>
    <g id="ytick_6">
     <g id="line2d_12">
      <g>
       <use style="stroke:#000000;stroke-width:0.8;" x="57.6" xlink:href="#m418c81fb87" y="132.422391"/>
      </g>
     </g>
     <g id="text_12">
      <!-- 0.005 -->
      <g transform="translate(21.971875 136.22161)scale(0.1 -0.1)">
       <use xlink:href="#DejaVuSans-30"/>
       <use x="63.623047" xlink:href="#DejaVuSans-2e"/>
       <use x="95.410156" xlink:href="#DejaVuSans-30"/>
       <use x="159.033203" xlink:href="#DejaVuSans-30"/>
       <use x="222.65625" xlink:href="#DejaVuSans-35"/>
      </g>
     </g>
    </g>
    <g id="ytick_7">
     <g id="line2d_13">
      <g>
       <use style="stroke:#000000;stroke-width:0.8;" x="57.6" xlink:href="#m418c81fb87" y="101.077967"/>
      </g>
     </g>
     <g id="text_13">
      <!-- 0.006 -->
      <defs>
       <path d="M 33.015625 40.375 
Q 26.375 40.375 22.484375 35.828125 
Q 18.609375 31.296875 18.609375 23.390625 
Q 18.609375 15.53125 22.484375 10.953125 
Q 26.375 6.390625 33.015625 6.390625 
Q 39.65625 6.390625 43.53125 10.953125 
Q 47.40625 15.53125 47.40625 23.390625 
Q 47.40625 31.296875 43.53125 35.828125 
Q 39.65625 40.375 33.015625 40.375 
M 52.59375 71.296875 
L 52.59375 62.3125 
Q 48.875 64.0625 45.09375 64.984375 
Q 41.3125 65.921875 37.59375 65.921875 
Q 27.828125 65.921875 22.671875 59.328125 
Q 17.53125 52.734375 16.796875 39.40625 
Q 19.671875 43.65625 24.015625 45.921875 
Q 28.375 48.1875 33.59375 48.1875 
Q 44.578125 48.1875 50.953125 41.515625 
Q 57.328125 34.859375 57.328125 23.390625 
Q 57.328125 12.15625 50.6875 5.359375 
Q 44.046875 -1.421875 33.015625 -1.421875 
Q 20.359375 -1.421875 13.671875 8.265625 
Q 6.984375 17.96875 6.984375 36.375 
Q 6.984375 53.65625 15.1875 63.9375 
Q 23.390625 74.21875 37.203125 74.21875 
Q 40.921875 74.21875 44.703125 73.484375 
Q 48.484375 72.75 52.59375 71.296875 
" id="DejaVuSans-36"/>
      </defs>
      <g transform="translate(21.971875 104.877186)scale(0.1 -0.1)">
       <use xlink:href="#DejaVuSans-30"/>
       <use x="63.623047" xlink:href="#DejaVuSans-2e"/>
       <use x="95.410156" xlink:href="#DejaVuSans-30"/>
       <use x="159.033203" xlink:href="#DejaVuSans-30"/>
       <use x="222.65625" xlink:href="#DejaVuSans-36"/>
      </g>
     </g>
    </g>
    <g id="ytick_8">
     <g id="line2d_14">
      <g>
       <use style="stroke:#000000;stroke-width:0.8;" x="57.6" xlink:href="#m418c81fb87" y="69.733543"/>
      </g>
     </g>
     <g id="text_14">
      <!-- 0.007 -->
      <defs>
       <path d="M 8.203125 72.90625 
L 55.078125 72.90625 
L 55.078125 68.703125 
L 28.609375 0 
L 18.3125 0 
L 43.21875 64.59375 
L 8.203125 64.59375 
z
" id="DejaVuSans-37"/>
      </defs>
      <g transform="translate(21.971875 73.532762)scale(0.1 -0.1)">
       <use xlink:href="#DejaVuSans-30"/>
       <use x="63.623047" xlink:href="#DejaVuSans-2e"/>
       <use x="95.410156" xlink:href="#DejaVuSans-30"/>
       <use x="159.033203" xlink:href="#DejaVuSans-30"/>
       <use x="222.65625" xlink:href="#DejaVuSans-37"/>
      </g>
     </g>
    </g>
   </g>
   <g id="line2d_15">
    <path clip-path="url(#p1c5d04fb22)" d="M 73.832727 63.189779 
L 164.689703 63.189779 
L 165.26841 69.904451 
L 167.583238 120.222935 
L 169.898065 159.189734 
L 172.212893 189.457657 
L 174.52772 213.068805 
L 176.842547 231.54639 
L 179.157375 246.024894 
L 181.472202 257.357706 
L 183.78703 266.195035 
L 186.101857 273.038378 
L 188.416684 278.278674 
L 190.731512 282.223451 
L 193.046339 285.116522 
L 195.361167 287.152519 
L 197.675994 288.487786 
L 199.990822 289.248612 
L 202.305649 289.537546 
L 204.620476 289.43823 
L 207.514011 288.855728 
L 209.828838 288.117986 
L 212.722372 286.908705 
L 215.0372 285.756384 
L 217.930734 284.138452 
L 221.981682 281.594927 
L 226.03263 278.836424 
L 232.398405 274.216173 
L 242.236422 266.713701 
L 259.597628 253.129543 
L 275.80142 240.218339 
L 286.79685 231.177637 
L 294.898746 224.270387 
L 303.000642 217.070256 
L 309.366417 211.159059 
L 315.732193 204.979623 
L 322.676675 197.870846 
L 329.04245 190.961043 
L 334.250812 184.982416 
L 340.03788 177.938542 
L 344.088828 172.729083 
L 348.718483 166.453275 
L 353.348138 159.789538 
L 357.399086 153.605572 
L 362.028741 146.058817 
L 366.658396 137.932748 
L 371.288051 129.128466 
L 375.338999 120.770176 
L 378.81124 113.019768 
L 382.283481 104.689327 
L 385.177015 97.189729 
L 388.649256 87.395877 
L 390.964084 80.341013 
L 393.278911 72.782824 
L 395.593738 64.646032 
L 397.329859 58.107547 
L 398.487273 53.568 
L 398.487273 53.568 
" style="fill:none;stroke:#1f77b4;stroke-linecap:square;stroke-width:1.5;"/>
   </g>
   <g id="line2d_16">
    <path clip-path="url(#p1c5d04fb22)" d="M 73.832727 203.413772 
L 74.411434 200.475212 
L 74.990141 213.208895 
L 75.568848 215.167896 
L 76.147555 214.188337 
L 76.726262 221.0449 
L 77.304968 216.147339 
L 77.883675 217.126898 
L 78.462382 217.126898 
L 79.041089 225.942579 
L 79.619796 223.983461 
L 80.198503 228.881022 
L 80.77721 222.024459 
L 81.355916 224.96302 
L 81.934623 231.819582 
L 83.092037 229.860581 
L 83.670744 227.90158 
L 84.249451 232.799142 
L 84.828158 229.860581 
L 85.406864 232.799142 
L 85.985571 232.799142 
L 86.564278 235.737702 
L 87.142985 227.90158 
L 87.721692 223.983461 
L 88.300399 236.717144 
L 88.879105 234.758143 
L 89.457812 235.737702 
L 90.036519 239.655704 
L 90.615226 228.881022 
L 91.193933 228.881022 
L 91.77264 236.717144 
L 92.351347 236.717144 
L 92.930053 233.778584 
L 93.50876 236.717144 
L 94.087467 234.758143 
L 94.666174 230.84014 
L 95.244881 240.635263 
L 95.823588 235.737702 
L 96.402295 238.676145 
L 96.981001 232.799142 
L 97.559708 237.696703 
L 98.138415 232.799142 
L 98.717122 240.635263 
L 99.295829 238.676145 
L 99.874536 240.635263 
L 100.453243 232.799142 
L 101.031949 236.717144 
L 101.610656 237.696703 
L 102.189363 241.614706 
L 102.76807 240.635263 
L 103.346777 242.594265 
L 104.504191 238.676145 
L 105.082897 234.758143 
L 105.661604 245.532825 
L 106.240311 244.553266 
L 106.819018 241.614706 
L 107.397725 247.491826 
L 107.976432 240.635263 
L 108.555139 240.635263 
L 109.133845 248.471269 
L 109.712552 246.512267 
L 110.291259 243.573707 
L 110.869966 243.573707 
L 111.448673 246.512267 
L 112.02738 247.491826 
L 112.606087 251.409829 
L 113.7635 245.532825 
L 114.342207 245.532825 
L 114.920914 253.368947 
L 115.499621 253.368947 
L 116.078328 256.30739 
L 116.657035 252.389388 
L 117.235741 250.430387 
L 117.814448 253.368947 
L 118.393155 258.266509 
L 118.971862 255.327948 
L 119.550569 258.266509 
L 120.129276 255.327948 
L 120.707982 255.327948 
L 121.286689 249.450828 
L 121.865396 257.286949 
L 122.444103 260.22551 
L 123.02281 260.22551 
L 123.601517 259.245951 
L 124.180224 259.245951 
L 124.75893 255.327948 
L 125.337637 252.389388 
L 125.916344 261.204952 
L 126.495051 263.16407 
L 127.073758 260.22551 
L 127.652465 265.123071 
L 128.231172 262.184511 
L 128.809878 256.30739 
L 129.388585 257.286949 
L 129.967292 264.143512 
L 130.545999 268.061632 
L 131.124706 264.143512 
L 131.703413 268.061632 
L 132.28212 262.184511 
L 132.860826 261.204952 
L 133.439533 257.286949 
L 134.01824 267.082073 
L 134.596947 271.979634 
L 135.175654 268.061632 
L 136.333068 268.061632 
L 136.911774 263.16407 
L 137.490481 263.16407 
L 138.069188 271.979634 
L 138.647895 269.041074 
L 139.226602 264.143512 
L 139.805309 267.082073 
L 140.384016 271.000075 
L 140.962722 275.897754 
L 141.541429 275.897754 
L 142.120136 274.918195 
L 142.698843 272.959193 
L 143.27755 273.938636 
L 143.856257 270.020633 
L 144.434964 275.897754 
L 145.01367 271.979634 
L 145.592377 272.959193 
L 146.171084 269.041074 
L 146.749791 278.836197 
L 147.328498 276.877196 
L 147.907205 277.856755 
L 148.485912 273.938636 
L 149.064618 276.877196 
L 149.643325 276.877196 
L 150.222032 278.836197 
L 150.800739 278.836197 
L 151.379446 276.877196 
L 151.958153 278.836197 
L 152.53686 279.815756 
L 153.115566 271.000075 
L 153.694273 269.041074 
L 154.27298 280.795315 
L 154.851687 277.856755 
L 155.430394 277.856755 
L 156.587807 281.774757 
L 157.166514 279.815756 
L 157.745221 283.733759 
L 158.323928 280.795315 
L 158.902635 280.795315 
L 160.060049 282.754316 
L 160.638755 274.918195 
L 161.217462 273.938636 
L 161.796169 286.672319 
L 162.374876 282.754316 
L 162.953583 286.672319 
L 163.53229 282.754316 
L 164.110997 279.815756 
L 164.689703 284.713318 
L 165.26841 280.795315 
L 166.425824 282.754316 
L 167.004531 286.672319 
L 167.583238 287.651878 
L 168.161945 285.692877 
L 168.740651 280.795315 
L 169.319358 278.836197 
L 169.898065 286.672319 
L 170.476772 281.774757 
L 171.055479 282.754316 
L 171.634186 276.877196 
L 172.212893 277.856755 
L 172.791599 285.692877 
L 173.370306 283.733759 
L 173.949013 286.672319 
L 174.52772 279.815756 
L 175.106427 277.856755 
L 175.685134 285.692877 
L 176.263841 287.651878 
L 176.842547 282.754316 
L 177.421254 282.754316 
L 177.999961 281.774757 
L 178.578668 286.672319 
L 179.157375 287.651878 
L 179.736082 284.713318 
L 180.314789 282.754316 
L 180.893495 283.733759 
L 181.472202 282.754316 
L 182.050909 287.651878 
L 182.629616 283.733759 
L 183.208323 286.672319 
L 183.78703 287.651878 
L 184.365737 280.795315 
L 184.944443 289.610879 
L 185.52315 285.692877 
L 186.101857 292.54944 
L 186.680564 283.733759 
L 187.259271 279.815756 
L 187.837978 292.54944 
L 188.416684 289.610879 
L 188.995391 289.610879 
L 189.574098 288.63132 
L 190.731512 282.754316 
L 191.310219 290.590438 
L 191.888926 291.569881 
L 192.467632 286.672319 
L 193.046339 290.590438 
L 193.625046 284.713318 
L 194.203753 281.774757 
L 194.78246 291.569881 
L 195.361167 291.569881 
L 195.939874 289.610879 
L 196.51858 293.528882 
L 197.097287 286.672319 
L 197.675994 283.733759 
L 198.254701 290.590438 
L 198.833408 292.54944 
L 199.412115 289.610879 
L 199.990822 293.528882 
L 200.569528 286.672319 
L 201.148235 291.569881 
L 201.726942 282.754316 
L 202.305649 295.488 
L 202.884356 291.569881 
L 203.463063 285.692877 
L 204.04177 291.569881 
L 204.620476 278.836197 
L 205.199183 286.672319 
L 205.77789 289.610879 
L 206.935304 289.610879 
L 207.514011 291.569881 
L 208.092718 290.590438 
L 208.671424 285.692877 
L 209.250131 289.610879 
L 209.828838 285.692877 
L 210.407545 285.692877 
L 210.986252 282.754316 
L 211.564959 291.569881 
L 212.143666 287.651878 
L 212.722372 285.692877 
L 213.301079 282.754316 
L 213.879786 291.569881 
L 214.458493 288.63132 
L 215.0372 282.754316 
L 215.615907 289.610879 
L 216.194614 290.590438 
L 216.77332 290.590438 
L 217.352027 281.774757 
L 217.930734 290.590438 
L 218.509441 289.610879 
L 219.088148 282.754316 
L 219.666855 282.754316 
L 220.245561 289.610879 
L 220.824268 292.54944 
L 221.402975 287.651878 
L 221.981682 291.569881 
L 222.560389 289.610879 
L 223.139096 282.754316 
L 223.717803 291.569881 
L 224.296509 287.651878 
L 224.875216 287.651878 
L 225.453923 278.836197 
L 226.03263 287.651878 
L 226.611337 289.610879 
L 227.190044 282.754316 
L 227.768751 287.651878 
L 228.347457 284.713318 
L 228.926164 285.692877 
L 229.504871 279.815756 
L 230.083578 288.63132 
L 230.662285 288.63132 
L 231.240992 284.713318 
L 231.819699 289.610879 
L 232.398405 289.610879 
L 232.977112 292.54944 
L 233.555819 288.63132 
L 234.134526 287.651878 
L 234.713233 288.63132 
L 235.29194 292.54944 
L 235.870647 283.733759 
L 236.449353 288.63132 
L 237.02806 289.610879 
L 237.606767 286.672319 
L 238.185474 281.774757 
L 238.764181 289.610879 
L 239.342888 286.672319 
L 239.921595 285.692877 
L 240.500301 278.836197 
L 241.079008 289.610879 
L 241.657715 284.713318 
L 242.236422 282.754316 
L 242.815129 275.897754 
L 243.393836 290.590438 
L 243.972543 284.713318 
L 244.551249 285.692877 
L 245.129956 281.774757 
L 245.708663 287.651878 
L 246.28737 282.754316 
L 246.866077 283.733759 
L 247.444784 278.836197 
L 248.023491 281.774757 
L 248.602197 285.692877 
L 249.180904 287.651878 
L 249.759611 280.795315 
L 250.338318 281.774757 
L 250.917025 283.733759 
L 251.495732 287.651878 
L 252.074439 278.836197 
L 252.653145 276.877196 
L 253.231852 283.733759 
L 254.389266 277.856755 
L 254.967973 273.938636 
L 255.54668 286.672319 
L 256.125386 278.836197 
L 256.704093 281.774757 
L 257.2828 277.856755 
L 257.861507 282.754316 
L 258.440214 281.774757 
L 259.018921 285.692877 
L 259.597628 276.877196 
L 260.176334 276.877196 
L 260.755041 283.733759 
L 261.333748 277.856755 
L 261.912455 281.774757 
L 263.069869 275.897754 
L 263.648576 276.877196 
L 264.227282 273.938636 
L 264.805989 273.938636 
L 265.384696 271.000075 
L 265.963403 280.795315 
L 266.54211 278.836197 
L 267.120817 283.733759 
L 267.699524 273.938636 
L 268.27823 271.000075 
L 268.856937 283.733759 
L 269.435644 278.836197 
L 270.014351 282.754316 
L 270.593058 271.979634 
L 271.171765 268.061632 
L 271.750472 278.836197 
L 272.329178 274.918195 
L 272.907885 279.815756 
L 273.486592 271.979634 
L 274.065299 271.979634 
L 274.644006 278.836197 
L 275.222713 275.897754 
L 275.80142 276.877196 
L 276.380126 275.897754 
L 276.958833 275.897754 
L 277.53754 267.082073 
L 278.116247 279.815756 
L 278.694954 272.959193 
L 279.273661 278.836197 
L 279.852368 267.082073 
L 280.431074 265.123071 
L 281.009781 276.877196 
L 282.167195 272.959193 
L 282.745902 276.877196 
L 283.324609 268.061632 
L 283.903316 266.102514 
L 284.482022 270.020633 
L 285.060729 271.979634 
L 285.639436 270.020633 
L 286.218143 273.938636 
L 286.79685 265.123071 
L 287.375557 262.184511 
L 287.954263 272.959193 
L 288.53297 270.020633 
L 289.111677 263.16407 
L 289.690384 271.000075 
L 290.269091 264.143512 
L 290.847798 268.061632 
L 291.426505 264.143512 
L 292.005211 269.041074 
L 292.583918 266.102514 
L 293.162625 269.041074 
L 293.741332 261.204952 
L 294.320039 269.041074 
L 294.898746 259.245951 
L 295.477453 267.082073 
L 296.634866 263.16407 
L 297.213573 268.061632 
L 297.79228 261.204952 
L 298.370987 264.143512 
L 298.949694 255.327948 
L 299.528401 268.061632 
L 300.107107 263.16407 
L 300.685814 263.16407 
L 301.264521 266.102514 
L 301.843228 259.245951 
L 302.421935 264.143512 
L 303.000642 261.204952 
L 303.579349 263.16407 
L 304.158055 258.266509 
L 304.736762 265.123071 
L 305.315469 256.30739 
L 305.894176 254.348389 
L 306.472883 264.143512 
L 307.05159 260.22551 
L 307.630297 262.184511 
L 308.209003 260.22551 
L 308.78771 257.286949 
L 309.366417 256.30739 
L 309.945124 256.30739 
L 310.523831 249.450828 
L 311.102538 262.184511 
L 312.259951 247.491826 
L 312.838658 251.409829 
L 313.417365 260.22551 
L 313.996072 258.266509 
L 314.574779 248.471269 
L 315.153486 257.286949 
L 315.732193 257.286949 
L 316.310899 252.389388 
L 316.889606 256.30739 
L 317.468313 250.430387 
L 318.04702 249.450828 
L 318.625727 257.286949 
L 319.204434 254.348389 
L 319.78314 254.348389 
L 320.361847 246.512267 
L 320.940554 256.30739 
L 321.519261 259.245951 
L 322.097968 255.327948 
L 322.676675 255.327948 
L 323.255382 251.409829 
L 324.412795 245.532825 
L 324.991502 254.348389 
L 325.570209 253.368947 
L 326.148916 249.450828 
L 326.727623 254.348389 
L 327.30633 254.348389 
L 327.885036 255.327948 
L 328.463743 247.491826 
L 329.04245 254.348389 
L 329.621157 249.450828 
L 330.199864 245.532825 
L 330.778571 244.553266 
L 331.357278 252.389388 
L 331.935984 249.450828 
L 332.514691 242.594265 
L 333.093398 245.532825 
L 333.672105 247.491826 
L 334.250812 246.512267 
L 334.829519 240.635263 
L 335.408226 240.635263 
L 335.986932 248.471269 
L 336.565639 249.450828 
L 337.144346 241.614706 
L 337.723053 245.532825 
L 338.30176 245.532825 
L 338.880467 247.491826 
L 339.459174 243.573707 
L 340.03788 241.614706 
L 340.616587 246.512267 
L 341.195294 245.532825 
L 341.774001 235.737702 
L 342.352708 235.737702 
L 342.931415 244.553266 
L 343.510122 238.676145 
L 344.667535 234.758143 
L 345.246242 243.573707 
L 345.824949 237.696703 
L 346.403656 235.737702 
L 346.982363 232.799142 
L 347.56107 241.614706 
L 348.139776 236.717144 
L 348.718483 241.614706 
L 349.29719 232.799142 
L 349.875897 232.799142 
L 350.454604 234.758143 
L 351.033311 237.696703 
L 351.612018 227.90158 
L 352.190724 225.942579 
L 352.769431 235.737702 
L 353.348138 231.819582 
L 353.926845 233.778584 
L 354.505552 234.758143 
L 355.084259 233.778584 
L 355.662965 233.778584 
L 356.241672 235.737702 
L 356.820379 225.942579 
L 357.399086 223.004018 
L 357.977793 236.717144 
L 358.5565 230.84014 
L 359.135207 234.758143 
L 359.713913 232.799142 
L 360.29262 229.860581 
L 360.871327 230.84014 
L 361.450034 232.799142 
L 362.028741 222.024459 
L 362.607448 224.96302 
L 363.186155 228.881022 
L 363.764861 225.942579 
L 364.343568 228.881022 
L 364.922275 218.106457 
L 365.500982 217.126898 
L 366.079689 224.96302 
L 366.658396 220.065458 
L 367.237103 224.96302 
L 367.815809 224.96302 
L 368.394516 223.983461 
L 368.973223 222.024459 
L 369.55193 223.004018 
L 370.130637 216.147339 
L 370.709344 218.106457 
L 371.288051 223.004018 
L 371.866757 221.0449 
L 373.024171 215.167896 
L 373.602878 211.249777 
L 374.181585 217.126898 
L 374.760292 214.188337 
L 375.338999 210.270335 
L 375.917705 209.290776 
L 376.496412 210.270335 
L 377.075119 201.454654 
L 377.653826 214.188337 
L 378.232533 207.331775 
L 378.81124 213.208895 
L 379.389947 202.434213 
L 379.968653 200.475212 
L 380.54736 210.270335 
L 381.126067 207.331775 
L 381.704774 206.352215 
L 382.283481 211.249777 
L 382.862188 201.454654 
L 383.440895 196.557092 
L 384.019601 211.249777 
L 384.598308 207.331775 
L 385.177015 200.475212 
L 385.755722 206.352215 
L 386.334429 202.434213 
L 386.913136 195.57765 
L 387.491842 206.352215 
L 388.070549 201.454654 
L 388.649256 199.495653 
L 389.227963 203.413772 
L 389.80667 194.598091 
L 390.385377 193.618532 
L 390.964084 198.516094 
L 391.54279 200.475212 
L 392.121497 200.475212 
L 392.700204 196.557092 
L 393.278911 201.454654 
L 393.857618 191.659531 
L 394.436325 190.680088 
L 395.015032 194.598091 
L 395.593738 197.536651 
L 396.172445 194.598091 
L 396.751152 194.598091 
L 397.329859 191.659531 
L 397.908566 191.659531 
L 398.487273 183.823409 
L 398.487273 183.823409 
" style="fill:none;stroke:#ff7f0e;stroke-linecap:square;stroke-width:1.5;"/>
   </g>
   <g id="patch_3">
    <path d="M 57.6 307.584 
L 57.6 41.472 
" style="fill:none;stroke:#000000;stroke-linecap:square;stroke-linejoin:miter;stroke-width:0.8;"/>
   </g>
   <g id="patch_4">
    <path d="M 414.72 307.584 
L 414.72 41.472 
" style="fill:none;stroke:#000000;stroke-linecap:square;stroke-linejoin:miter;stroke-width:0.8;"/>
   </g>
   <g id="patch_5">
    <path d="M 57.6 307.584 
L 414.72 307.584 
" style="fill:none;stroke:#000000;stroke-linecap:square;stroke-linejoin:miter;stroke-width:0.8;"/>
   </g>
   <g id="patch_6">
    <path d="M 57.6 41.472 
L 414.72 41.472 
" style="fill:none;stroke:#000000;stroke-linecap:square;stroke-linejoin:miter;stroke-width:0.8;"/>
   </g>
  </g>
 </g>
 <defs>
  <clipPath id="p1c5d04fb22">
   <rect height="266.112" width="357.12" x="57.6" y="41.472"/>
  </clipPath>
 </defs>
</svg>
